<?xml version="1.0" standalone="no"?>
<!DOCTYPE svg PUBLIC "-//W3C//DTD SVG 20010904//EN"
 "http://www.w3.org/TR/2001/REC-SVG-20010904/DTD/svg10.dtd">
<svg version="1.0" xmlns="http://www.w3.org/2000/svg"
 width="1366.000000pt" height="500.000000pt" viewBox="0 0 1366.000000 500.000000"
 preserveAspectRatio="xMidYMid meet">

<g transform="translate(0.000000,500.000000) scale(0.100000,-0.100000)"
fill="#000000" stroke="none">
<path d="M4101 4158 c-5 -13 -17 -66 -26 -118 -36 -196 -141 -528 -226 -711
-27 -58 -49 -113 -49 -122 0 -24 50 -58 79 -55 22 3 34 20 81 115 82 167 281
410 328 401 30 -6 24 -34 -32 -155 -64 -140 -80 -197 -73 -259 9 -86 90 -127
172 -88 60 28 106 125 53 110 -58 -16 -75 -17 -85 -4 -18 20 0 85 59 218 39
87 53 130 56 177 4 59 2 64 -26 93 -23 22 -40 30 -67 30 -75 0 -119 -35 -235
-187 -30 -40 -55 -71 -57 -69 -2 1 17 56 41 122 68 184 117 352 123 425 5 61
4 67 -18 83 -35 24 -87 21 -98 -6z"/>
<path d="M3395 4091 c-79 -35 -121 -117 -95 -182 13 -30 37 -49 64 -49 8 0 24
20 35 44 10 24 31 52 45 62 30 19 160 32 169 17 4 -6 -4 -38 -18 -71 -14 -33
-54 -159 -91 -279 -75 -250 -118 -348 -177 -404 -33 -33 -39 -44 -30 -57 24
-39 89 -23 146 36 85 88 137 205 236 537 l66 220 80 -3 c94 -3 137 16 161 73
29 69 5 95 -47 51 -39 -33 -62 -33 -253 -1 -178 30 -237 31 -291 6z"/>
<path d="M4755 4098 c-52 -28 -62 -97 -20 -142 55 -60 155 -8 155 81 0 15 -4
33 -8 39 -21 32 -88 44 -127 22z"/>
<path d="M4665 3780 c-12 -4 -27 -15 -34 -24 -12 -14 -11 -20 9 -41 29 -31 25
-63 -25 -182 -66 -159 -88 -227 -88 -277 -1 -43 3 -52 33 -78 29 -27 38 -30
83 -25 41 3 56 11 79 36 15 17 28 42 28 56 0 21 -5 24 -47 27 l-48 3 2 36 c1
20 31 103 67 186 36 83 71 174 78 203 11 50 11 53 -11 71 -24 20 -89 25 -126
9z"/>
<path d="M5154 3760 c-220 -110 -337 -428 -209 -568 31 -35 37 -37 92 -37 74
0 117 26 174 104 l39 54 0 -52 c0 -45 4 -57 29 -82 54 -53 159 -31 196 41 23
45 14 62 -25 49 -17 -6 -42 -8 -55 -5 -22 6 -25 12 -25 56 0 58 32 151 106
310 l54 115 -26 23 c-35 31 -70 28 -103 -9 l-29 -31 -21 21 c-50 50 -113 53
-197 11z m159 -82 c20 -27 20 -29 3 -83 -28 -90 -112 -246 -158 -297 -79 -85
-128 -74 -128 31 1 74 15 132 50 206 70 147 180 214 233 143z"/>
<path d="M5869 3776 c-82 -29 -179 -115 -231 -206 -59 -102 -76 -254 -38 -337
50 -111 190 -109 289 4 l40 44 -11 -38 c-16 -61 -74 -180 -114 -234 -40 -55
-99 -100 -156 -118 -43 -14 -48 -33 -16 -55 30 -21 64 -20 116 4 144 65 232
209 341 560 33 107 73 223 87 258 26 61 26 63 8 77 -36 26 -65 28 -91 3 l-24
-22 -22 26 c-42 49 -103 61 -178 34z m117 -72 c43 -29 46 -45 20 -120 -68
-201 -204 -375 -264 -338 -83 53 30 398 150 457 42 21 63 21 94 1z"/>
<path d="M6530 3781 c-159 -49 -290 -240 -290 -423 0 -130 53 -195 168 -205
87 -8 161 24 237 101 173 176 194 447 41 517 -42 19 -111 23 -156 10z m105
-81 c27 -30 17 -164 -20 -254 -92 -224 -245 -306 -245 -131 0 114 67 273 150
356 54 54 85 62 115 29z"/>
<path d="M5286 2594 c-101 -22 -146 -47 -146 -83 0 -28 17 -49 57 -70 18 -9
34 -5 101 30 67 35 91 43 153 46 66 4 80 2 129 -24 42 -21 61 -39 79 -72 52
-94 22 -266 -69 -407 -86 -131 -281 -284 -363 -284 l-30 0 6 54 c11 108 125
405 207 537 16 27 30 55 30 63 0 28 -75 45 -122 27 -47 -18 -169 -289 -223
-496 -34 -131 -33 -165 5 -209 65 -74 170 -74 315 -2 277 137 459 461 390 693
-49 166 -270 250 -519 197z"/>
<path d="M7725 2598 c-52 -28 -62 -97 -20 -142 55 -60 155 -8 155 81 0 15 -4
33 -8 39 -21 32 -88 44 -127 22z"/>
<path d="M6140 2281 c-159 -49 -290 -240 -290 -423 0 -130 53 -195 168 -205
87 -8 161 24 237 101 173 176 194 447 41 517 -42 19 -111 23 -156 10z m105
-81 c27 -30 17 -164 -20 -254 -92 -224 -245 -306 -245 -131 0 114 67 273 150
356 54 54 85 62 115 29z"/>
<path d="M6593 2266 l-28 -24 23 -24 c12 -13 22 -35 22 -47 0 -35 -54 -191
-117 -334 -53 -122 -54 -128 -39 -152 17 -26 56 -41 81 -32 8 4 41 59 74 124
91 182 294 409 347 389 25 -10 14 -46 -76 -241 -98 -214 -101 -225 -65 -254
56 -43 70 -33 129 92 57 121 144 251 232 347 100 108 125 67 50 -85 -59 -121
-76 -175 -76 -241 0 -88 37 -134 107 -134 39 0 100 40 118 76 22 47 20 57 -12
50 -72 -18 -80 -18 -87 -1 -10 27 11 90 71 220 39 82 58 136 61 172 4 49 2 55
-31 88 -79 79 -158 33 -324 -190 l-23 -30 20 59 c29 86 27 131 -9 167 -64 64
-144 26 -266 -128 -44 -56 -81 -100 -83 -99 -1 2 10 29 25 62 14 32 28 79 31
104 4 42 1 49 -23 68 -38 30 -96 29 -132 -2z"/>
<path d="M7635 2280 c-12 -4 -27 -15 -34 -24 -12 -14 -11 -20 9 -41 29 -31 25
-63 -25 -182 -66 -159 -88 -227 -88 -277 -1 -43 3 -52 33 -78 29 -27 38 -30
83 -25 41 3 56 11 79 36 15 17 28 42 28 56 0 21 -5 24 -47 27 l-48 3 2 36 c1
20 31 103 67 186 36 83 71 174 78 203 11 50 11 53 -11 71 -24 20 -89 25 -126
9z"/>
<path d="M7973 2266 l-28 -24 23 -24 c12 -13 22 -35 22 -47 0 -35 -54 -191
-117 -334 -53 -122 -54 -128 -39 -152 17 -26 56 -41 81 -32 8 4 40 57 71 119
55 111 152 244 254 350 47 49 85 62 96 33 3 -8 -17 -63 -44 -123 -61 -133 -82
-200 -82 -265 0 -42 5 -54 34 -83 26 -26 42 -34 70 -34 63 0 131 49 138 100 3
22 0 25 -22 22 -78 -10 -85 -8 -88 20 -3 26 26 106 92 253 46 103 48 161 9
205 -40 45 -97 51 -155 17 -50 -30 -84 -64 -163 -167 -32 -41 -55 -66 -50 -55
34 86 55 150 55 171 0 67 -100 99 -157 50z"/>
<path d="M8859 2276 c-82 -29 -179 -115 -231 -206 -59 -102 -76 -254 -38 -337
50 -111 190 -109 289 4 l40 44 -11 -38 c-16 -61 -74 -180 -114 -234 -40 -55
-99 -100 -156 -118 -43 -14 -48 -33 -16 -55 30 -21 64 -20 116 4 144 65 232
209 341 560 33 107 73 223 87 258 26 61 26 63 8 77 -36 26 -65 28 -91 3 l-24
-22 -22 26 c-42 49 -103 61 -178 34z m117 -72 c43 -29 46 -45 20 -120 -68
-201 -204 -375 -264 -338 -83 53 30 398 150 457 42 21 63 21 94 1z"/>
<path d="M9348 2274 c-31 -16 -37 -48 -12 -58 27 -10 12 -80 -48 -222 -31 -71
-60 -144 -67 -163 -43 -129 42 -218 156 -164 43 20 115 90 179 175 67 89 67
89 44 23 -37 -107 -27 -179 27 -204 70 -32 171 17 176 85 2 24 -1 28 -18 26
-11 -2 -33 -5 -50 -5 -28 -2 -30 1 -33 36 -4 49 15 107 96 289 35 81 62 154
59 163 -9 22 -51 39 -81 31 -19 -5 -41 -35 -97 -134 -95 -167 -161 -263 -230
-334 -59 -60 -93 -73 -102 -39 -3 11 19 73 49 141 62 140 104 261 104 297 0
13 -11 35 -25 48 -28 29 -84 33 -127 9z"/>
<path d="M10220 2281 c-197 -64 -355 -354 -281 -516 22 -48 67 -89 117 -105
76 -26 243 9 288 59 24 26 30 73 12 96 -14 20 -14 20 -38 -1 -52 -48 -152 -83
-203 -70 -30 8 -55 53 -55 98 l0 34 78 10 c179 24 301 126 302 252 0 49 -17
86 -54 121 -20 19 -39 25 -84 28 -31 1 -68 -1 -82 -6z m90 -90 c42 -79 -69
-213 -202 -245 -23 -5 -28 -3 -28 11 0 24 56 140 87 181 49 65 122 91 143 53z"/>
<path d="M10617 2283 c-15 -14 -7 -80 12 -97 27 -24 105 -30 186 -13 39 8 71
14 73 12 1 -1 -43 -42 -100 -91 -190 -165 -289 -274 -318 -350 -8 -21 -7 -32
5 -51 28 -42 56 -48 124 -24 79 27 163 27 236 0 31 -11 62 -18 70 -15 35 13 4
96 -45 121 -36 18 -85 19 -170 1 -36 -8 -67 -12 -69 -10 -10 9 76 97 202 207
78 67 156 142 174 166 40 52 44 97 10 129 -29 27 -38 27 -87 2 -51 -26 -129
-26 -212 0 -69 22 -81 23 -91 13z"/>
</g>
</svg>
