<?xml version="1.0" standalone="no"?>
<!DOCTYPE svg PUBLIC "-//W3C//DTD SVG 20010904//EN"
 "http://www.w3.org/TR/2001/REC-SVG-20010904/DTD/svg10.dtd">
<svg version="1.0" xmlns="http://www.w3.org/2000/svg"
 width="720.000000pt" height="720.000000pt" viewBox="0 0 720.000000 720.000000"
 preserveAspectRatio="xMidYMid meet">

<g transform="translate(0.000000,720.000000) scale(0.100000,-0.100000)"
fill="#000000" stroke="none">
<path d="M0 3600 l0 -3600 3600 0 3600 0 0 3600 0 3600 -3600 0 -3600 0 0
-3600z m1194 463 c20 -33 23 -59 15 -120 -12 -86 -31 -138 -110 -301 -38 -78
-69 -145 -69 -148 0 -3 33 28 73 69 69 73 109 96 142 83 23 -8 19 -79 -10
-169 -14 -43 -25 -96 -25 -117 0 -37 2 -40 28 -40 16 0 45 13 68 31 38 29 42
36 68 145 31 125 44 144 103 144 42 0 42 -1 2 -165 -33 -135 -34 -185 -3 -185
32 0 95 44 100 70 18 79 28 104 64 158 22 32 57 71 79 86 49 34 111 45 130 22
8 -9 28 -16 48 -16 22 0 36 -6 40 -16 3 -9 -2 -69 -12 -134 -10 -65 -15 -125
-12 -134 10 -24 53 -19 75 9 11 14 23 42 27 62 8 44 37 104 72 152 54 71 162
114 193 77 6 -8 28 -16 48 -18 34 -3 37 -6 40 -36 2 -18 -6 -96 -18 -174 -12
-77 -19 -143 -16 -145 6 -6 96 64 97 75 0 4 1 36 3 72 3 90 40 169 97 207 57
38 155 44 223 14 68 -29 166 -126 166 -163 0 -32 -11 -36 -31 -11 -17 20 -128
103 -139 103 -4 0 -2 -17 6 -37 54 -153 -70 -340 -202 -304 -22 6 -50 20 -62
31 l-21 20 -81 -62 c-54 -41 -82 -70 -86 -87 -25 -118 -64 -213 -106 -262 -76
-87 -212 -100 -243 -25 -28 66 19 151 162 293 57 57 103 107 103 113 0 13 1
13 -45 -10 -51 -26 -74 -25 -116 3 l-33 22 -46 -24 c-63 -33 -93 -26 -134 33
-13 19 -14 19 -47 -6 -75 -55 -133 -59 -188 -12 l-29 24 -58 -27 c-81 -38
-138 -37 -168 0 l-23 29 -34 -21 c-50 -31 -102 -43 -133 -31 -67 25 -85 133
-41 241 15 37 19 59 12 56 -24 -7 -108 -123 -152 -209 -25 -48 -50 -90 -55
-93 -22 -14 -49 16 -56 62 -15 99 32 555 61 603 3 6 0 10 -7 10 -7 0 -71 7
-143 14 -71 8 -133 11 -136 8 -4 -4 -17 -54 -29 -112 -28 -135 -138 -536 -156
-572 -18 -34 -44 -49 -73 -41 -58 15 -42 103 83 467 48 138 83 253 79 257 -13
11 -134 -10 -166 -29 -17 -9 -35 -31 -40 -47 -15 -46 -36 -65 -74 -65 -38 0
-73 29 -73 61 0 68 63 126 165 155 100 27 473 27 591 -1 17 -4 28 4 48 36 47
70 161 102 190 52z m2261 -77 c109 -29 180 -82 219 -166 28 -61 30 -228 2
-310 -50 -149 -151 -268 -263 -310 -74 -28 -196 -25 -258 5 l-40 20 2 120 c4
189 29 328 79 427 37 72 86 97 125 62 16 -15 16 -19 -11 -77 -32 -68 -68 -253
-77 -398 -6 -83 -5 -87 17 -94 36 -11 104 4 152 34 116 73 194 236 186 386 -3
62 -8 80 -33 116 -55 78 -168 113 -292 90 -97 -18 -128 -37 -184 -114 -27 -37
-55 -67 -62 -64 -19 6 -20 86 -2 134 22 57 91 116 157 136 66 19 217 21 283 3z
m-1887 -152 c32 -22 30 -76 -4 -103 -32 -25 -90 -27 -116 -4 -10 9 -18 30 -18
49 0 61 84 96 138 58z m3360 0 c29 -20 30 -72 2 -102 -29 -31 -103 -31 -124 0
-51 72 47 155 122 102z m1844 -195 c30 -15 55 -20 97 -17 l56 3 3 -37 c2 -28
-1 -38 -15 -42 -10 -4 -32 -28 -50 -54 -18 -26 -55 -76 -83 -111 -58 -71 -56
-81 12 -88 38 -4 50 0 102 36 66 44 96 43 96 -5 0 -74 -175 -147 -264 -110
-21 9 -53 16 -71 16 -18 0 -38 6 -44 14 -10 12 -20 11 -69 -11 -91 -42 -179
-35 -239 19 l-22 20 -62 -31 c-99 -49 -151 -40 -178 31 l-10 26 -42 -39 c-24
-22 -60 -44 -81 -51 -34 -10 -42 -9 -68 10 l-29 22 -69 -50 -68 -50 -18 -76
c-23 -98 -78 -206 -123 -243 -67 -55 -187 -60 -214 -9 -6 11 -9 41 -6 65 6 60
60 136 175 249 50 50 92 97 92 104 0 6 -3 10 -7 8 -83 -43 -120 -44 -167 -7
-25 20 -26 20 -63 1 -121 -61 -159 -23 -151 149 2 49 1 89 -2 89 -3 0 -33 -55
-65 -121 -33 -67 -70 -128 -82 -136 -21 -14 -26 -14 -48 1 -14 9 -25 25 -25
36 0 11 -2 20 -4 20 -2 0 -35 -15 -72 -32 -90 -43 -148 -44 -177 -6 -20 27
-20 27 -46 9 -33 -24 -104 -43 -125 -35 -30 12 -41 48 -46 159 l-5 110 -49
-127 c-43 -112 -52 -128 -79 -139 -27 -11 -32 -10 -48 10 -22 27 -24 71 -8
172 6 39 8 73 5 76 -3 4 -33 -51 -66 -120 -34 -70 -69 -131 -79 -136 -30 -17
-59 -2 -72 36 -11 33 -7 141 7 200 5 17 -6 30 -50 63 -31 24 -59 41 -62 38 -2
-3 0 -17 6 -32 18 -49 12 -137 -14 -191 -91 -192 -306 -143 -306 69 0 76 16
126 52 171 83 99 226 101 349 4 35 -28 40 -29 45 -12 25 76 45 96 85 86 24 -7
28 -31 17 -98 -14 -93 -6 -95 44 -14 58 93 78 111 115 107 27 -3 28 -5 28 -58
0 -30 -4 -71 -8 -90 -7 -33 -7 -34 8 -15 9 11 38 53 66 93 43 62 54 72 79 72
46 0 55 -29 41 -131 -26 -193 -6 -238 72 -169 28 24 37 42 46 91 21 105 50
188 71 199 10 5 32 10 49 10 27 0 31 -3 31 -28 0 -15 -9 -58 -20 -97 -62 -217
-42 -273 67 -187 l48 39 18 114 c22 135 35 161 80 157 l32 -3 -2 -92 c-1 -51
0 -93 2 -93 3 0 21 33 41 73 47 94 69 117 111 117 53 0 60 -28 39 -160 -20
-126 -16 -170 18 -170 39 0 63 26 69 75 17 118 139 255 230 255 13 0 30 -6 37
-14 6 -8 28 -16 48 -18 34 -3 37 -5 40 -39 2 -19 -6 -98 -17 -174 -11 -76 -18
-141 -16 -144 7 -6 74 49 97 80 10 14 24 66 33 124 10 57 26 117 38 140 19 34
28 40 60 43 45 4 44 9 17 -148 -23 -134 -24 -164 -7 -178 20 -16 57 5 71 40 8
18 24 85 36 148 12 63 26 120 32 127 16 20 85 17 90 -4 3 -10 -3 -65 -13 -123
-23 -133 -24 -186 -4 -194 9 -3 36 4 60 16 43 21 45 24 45 66 0 135 86 252
184 252 56 0 88 -18 110 -64 16 -33 17 -44 7 -77 -16 -54 -62 -103 -127 -135
-52 -26 -54 -27 -38 -45 33 -37 125 -14 210 50 35 26 55 36 62 29 7 -7 27 13
61 58 54 71 60 88 35 98 -37 14 -63 5 -93 -31 -40 -48 -58 -36 -41 28 12 47
42 86 75 99 29 12 32 12 77 -11z"/>
<path d="M1097 3982 c-49 -54 -101 -224 -121 -397 l-5 -50 38 80 c58 121 110
266 117 329 7 59 -1 69 -29 38z"/>
<path d="M1783 3539 c-46 -29 -95 -132 -91 -189 5 -76 55 -81 90 -9 16 33 48
166 48 202 0 22 -8 21 -47 -4z"/>
<path d="M2213 3539 c-42 -27 -93 -128 -93 -184 0 -66 41 -87 78 -40 19 24 62
182 62 226 0 24 -7 24 -47 -2z"/>
<path d="M2610 3554 c-41 -12 -88 -136 -74 -198 13 -61 63 -86 97 -48 49 54
65 194 27 232 -20 20 -23 21 -50 14z"/>
<path d="M2128 3024 c-100 -102 -127 -185 -51 -158 33 11 65 57 93 131 32 86
22 93 -42 27z"/>
<path d="M3837 3540 c-38 -30 -60 -98 -55 -166 5 -59 23 -84 60 -84 68 0 115
193 61 252 -21 23 -34 23 -66 -2z"/>
<path d="M5579 3544 c-31 -20 -67 -70 -85 -121 -36 -103 13 -177 68 -102 32
42 73 240 51 239 -5 0 -20 -8 -34 -16z"/>
<path d="M6413 3548 c-26 -12 -53 -65 -53 -102 0 -36 30 -34 73 4 39 34 48 56
36 88 -9 24 -22 26 -56 10z"/>
<path d="M5484 3018 c-61 -66 -100 -130 -89 -148 25 -40 100 27 134 118 37 97
25 105 -45 30z"/>
</g>
</svg>
