<?xml version="1.0" standalone="no"?>
<!DOCTYPE svg PUBLIC "-//W3C//DTD SVG 20010904//EN"
 "http://www.w3.org/TR/2001/REC-SVG-20010904/DTD/svg10.dtd">
<svg version="1.0" xmlns="http://www.w3.org/2000/svg"
 width="576.000000pt" height="1280.000000pt" viewBox="0 0 576.000000 1280.000000"
 preserveAspectRatio="xMidYMid meet">

<g transform="translate(0.000000,1280.000000) scale(0.100000,-0.100000)"
fill="#000000" stroke="none">
<path d="M0 6400 l0 -6400 2880 0 2880 0 0 6400 0 6400 -2880 0 -2880 0 0
-6400z m952 373 c42 -38 14 -167 -75 -346 -30 -59 -51 -107 -47 -107 4 0 24
20 45 44 42 50 95 82 119 73 22 -9 20 -49 -5 -130 -11 -36 -19 -80 -17 -99 3
-29 6 -33 28 -30 47 5 77 47 100 143 23 94 35 109 84 109 32 0 32 -2 1 -124
-29 -114 -31 -144 -10 -152 8 -3 29 2 46 12 23 15 36 34 52 85 27 80 73 140
126 164 39 17 43 17 97 0 l57 -18 -7 -56 c-18 -148 -18 -168 -7 -175 21 -14
60 22 72 66 22 83 72 153 131 184 31 16 74 18 83 4 3 -5 17 -10 30 -10 40 0
46 -27 29 -141 -8 -57 -17 -114 -19 -126 -7 -31 4 -29 48 10 35 30 37 36 37
87 0 65 30 133 72 164 33 24 122 33 172 16 50 -16 136 -96 136 -126 0 -32 -5
-30 -50 10 -21 19 -48 40 -60 46 -21 11 -22 11 -14 -22 28 -108 -28 -224 -117
-243 -20 -5 -43 0 -74 15 l-44 21 -61 -43 c-39 -27 -63 -52 -66 -68 -30 -132
-72 -212 -129 -246 -80 -46 -155 -22 -155 49 0 47 48 118 142 210 44 43 78 80
76 82 -2 2 -25 -3 -50 -13 -46 -16 -48 -16 -77 6 l-30 22 -33 -20 c-45 -27
-65 -25 -98 10 -19 20 -31 27 -36 19 -11 -19 -94 -51 -118 -45 -12 3 -32 15
-44 26 l-23 21 -47 -22 c-61 -30 -120 -31 -139 -2 l-14 21 -56 -25 c-51 -24
-59 -25 -82 -12 -53 30 -65 102 -31 189 11 27 15 50 10 50 -13 0 -106 -134
-130 -186 -47 -103 -80 -78 -80 62 0 115 17 282 35 354 8 30 12 57 9 60 -8 7
-214 27 -223 20 -4 -3 -15 -43 -25 -89 -28 -132 -116 -444 -132 -468 -26 -41
-90 -17 -79 30 3 12 9 42 15 67 5 25 40 137 78 250 l70 205 -37 3 c-63 5 -112
-18 -135 -63 -17 -32 -27 -41 -52 -43 -43 -4 -68 21 -60 62 8 44 67 92 129
106 84 19 257 24 377 10 l111 -12 21 27 c46 59 114 81 150 48z m1826 -68 c109
-33 173 -111 180 -221 11 -162 -73 -324 -203 -392 -41 -22 -63 -27 -125 -26
-51 0 -85 6 -107 17 -32 17 -33 20 -33 80 0 225 65 437 134 437 36 0 51 -24
32 -52 -21 -32 -42 -120 -62 -256 -20 -143 -16 -162 33 -162 124 0 243 155
243 316 0 73 -15 109 -60 148 -42 35 -102 49 -174 41 -93 -10 -129 -29 -171
-91 -45 -65 -65 -70 -65 -16 0 46 36 119 71 144 65 48 206 63 307 33z m-1527
-115 c24 -13 25 -57 2 -82 -16 -18 -68 -24 -89 -10 -25 16 -26 53 -3 78 24 25
58 31 90 14z m2690 0 c24 -13 25 -57 2 -82 -20 -22 -76 -24 -97 -2 -49 49 30
118 95 84z m1548 -170 c42 0 51 -3 57 -22 4 -15 1 -26 -13 -37 -24 -21 -143
-177 -143 -189 0 -10 33 -22 61 -22 8 0 37 14 62 31 50 33 77 33 77 -1 0 -31
-45 -68 -107 -87 -52 -16 -57 -16 -104 0 -27 10 -53 16 -58 13 -4 -3 -16 1
-27 8 -16 12 -24 12 -54 -4 -76 -38 -139 -37 -189 5 l-28 24 -48 -25 c-66 -33
-110 -32 -132 4 -9 15 -18 29 -19 31 -2 1 -20 -10 -41 -27 -52 -41 -78 -47
-109 -27 -25 16 -27 15 -80 -21 -35 -24 -57 -47 -60 -63 -36 -165 -99 -255
-187 -267 -35 -5 -53 -2 -72 10 -61 40 -11 152 126 279 40 37 70 69 67 72 -3
3 -22 -2 -43 -11 -41 -17 -75 -13 -99 12 -15 14 -21 14 -71 -7 l-56 -23 -22
22 c-19 20 -22 33 -22 107 0 47 -2 85 -5 85 -3 0 -28 -45 -55 -100 -27 -54
-55 -102 -62 -104 -21 -8 -44 5 -53 30 l-9 23 -52 -27 c-63 -32 -124 -36 -145
-8 -12 18 -15 18 -48 2 -19 -9 -48 -19 -64 -22 -42 -8 -56 20 -62 126 l-5 85
-39 -98 c-21 -54 -47 -102 -57 -107 -24 -14 -48 -2 -55 26 -6 23 2 120 12 157
3 9 1 17 -4 17 -4 0 -30 -45 -56 -99 -48 -102 -64 -118 -96 -101 -25 14 -32
53 -22 130 5 36 8 70 5 75 -5 14 -83 68 -89 62 -2 -2 0 -16 6 -31 23 -63 0
-156 -51 -203 -136 -124 -278 81 -167 242 56 83 183 87 285 9 l33 -25 6 30 c8
38 26 54 56 49 22 -3 23 -7 20 -73 l-3 -70 32 50 c44 71 69 95 96 95 29 0 38
-33 23 -90 -6 -23 -9 -44 -6 -47 3 -3 22 21 42 53 47 73 57 84 82 84 38 0 43
-20 30 -127 -12 -108 -9 -133 19 -133 42 1 64 34 89 135 14 56 32 106 41 113
20 14 73 16 73 2 0 -5 -11 -53 -25 -106 -39 -149 -31 -183 32 -151 53 28 69
57 82 147 16 105 24 122 59 118 27 -3 27 -4 25 -75 -1 -40 0 -73 2 -73 3 0 14
19 26 43 38 76 67 107 99 107 38 0 47 -30 31 -107 -14 -72 -14 -136 0 -150 21
-21 58 6 65 46 8 44 45 117 77 153 44 48 117 73 142 49 6 -5 21 -11 35 -13 22
-3 25 -8 28 -49 2 -26 -4 -88 -12 -140 -8 -51 -13 -95 -11 -97 7 -7 61 36 77
60 8 13 22 63 32 112 19 108 35 136 76 136 17 0 30 -3 30 -7 0 -5 -9 -57 -19
-118 -18 -106 -16 -145 9 -145 23 0 49 42 59 97 32 166 33 168 69 171 44 4 48
-12 28 -122 -9 -51 -16 -102 -16 -113 0 -29 24 -35 64 -17 31 15 34 21 39 75
6 70 44 142 87 164 86 44 173 -13 149 -98 -11 -39 -75 -103 -114 -113 -29 -7
-31 -16 -10 -34 23 -19 81 -5 146 35 31 19 63 35 71 35 7 0 27 20 43 45 17 24
33 45 38 45 4 0 7 6 7 14 0 8 -14 18 -32 21 -28 7 -36 4 -60 -26 -32 -38 -43
-34 -34 15 13 71 64 105 118 79 15 -7 49 -13 77 -13z"/>
<path d="M845 6650 c-33 -70 -71 -237 -63 -276 5 -25 93 183 112 266 8 35 13
67 10 72 -12 19 -27 4 -59 -62z"/>
<path d="M1420 6343 c-56 -47 -89 -150 -58 -181 33 -33 63 6 89 116 10 42 15
80 10 85 -4 4 -23 -4 -41 -20z"/>
<path d="M1790 6362 c-56 -18 -111 -133 -89 -188 22 -59 70 -7 94 101 18 83
17 94 -5 87z"/>
<path d="M2078 6356 c-46 -35 -65 -158 -29 -190 29 -27 53 -16 79 34 28 55 26
135 -4 157 -22 16 -24 16 -46 -1z"/>
<path d="M1718 5957 c-36 -31 -88 -106 -88 -129 0 -25 32 -23 57 5 30 32 65
105 61 128 -3 18 -4 18 -30 -4z"/>
<path d="M3065 6346 c-29 -29 -49 -98 -40 -143 8 -42 45 -64 71 -42 44 36 61
161 26 192 -24 22 -28 21 -57 -7z"/>
<path d="M4456 6349 c-68 -53 -98 -199 -41 -199 22 0 53 47 63 98 29 134 28
140 -22 101z"/>
<path d="M5121 6353 c-12 -10 -24 -35 -28 -55 -5 -33 -3 -38 14 -38 26 0 73
44 73 68 0 18 -18 42 -31 42 -4 0 -16 -8 -28 -17z"/>
<path d="M4390 5940 c-44 -48 -83 -113 -73 -124 26 -26 79 22 108 98 26 69 14
78 -35 26z"/>
</g>
</svg>
